<svg id="grid-offset-even-r" width="480" height="360">
	<g>
		<g class="tile">
			<polygon points="151.962,70.000 151.962,50.000 169.282,40.000 186.603,50.000 186.603,70.000 169.282,80.000"></polygon>
		<circle class="emptyTile" cx="169.282" cy="60.000" r="10.000">
		</g>
		<g class="tile">
			<polygon points="186.603,70.000 186.603,50.000 203.923,40.000 221.244,50.000 221.244,70.000 203.923,80.000"></polygon>
		<circle class="emptyTile" cx="203.923" cy="60.000" r="10.000">
		</g>
		<g class="tile">
			<polygon points="221.244,70.000 221.244,50.000 238.564,40.000 255.885,50.000 255.885,70.000 238.564,80.000"></polygon>
		<circle class="emptyTile" cx="238.564" cy="60.000" r="10.000">
		</g>
		<g class="tile">
			<polygon points="255.885,70.000 255.885,50.000 273.205,40.000 290.526,50.000 290.526,70.000 273.205,80.000"></polygon>
		<circle class="emptyTile" cx="273.205" cy="60.000" r="10.000">
		</g>
		<g class="tile">
			<polygon points="290.526,70.000 290.526,50.000 307.846,40.000 325.167,50.000 325.167,70.000 307.846,80.000"></polygon>
		<circle class="emptyTile" cx="307.846" cy="60.000" r="10.000">
		</g>
		<g class="tile">
			<polygon points="134.641,100.000 134.641,80.000 151.962,70.000 169.282,80.000 169.282,100.000 151.962,110.000"></polygon>
		<circle class="emptyTile" cx="151.962" cy="90.000" r="10.000">
		</g>
		<g class="tile">
			<polygon points="169.282,100.000 169.282,80.000 186.603,70.000 203.923,80.000 203.923,100.000 186.603,110.000"></polygon>
		<circle class="emptyTile" cx="186.603" cy="90.000" r="10.000">
		</g>
		<g class="tile">
			<polygon points="203.923,100.000 203.923,80.000 221.244,70.000 238.564,80.000 238.564,100.000 221.244,110.000"></polygon>
		<circle class="emptyTile" cx="221.244" cy="90.000" r="10.000">
		</g>
		<g class="tile">
			<polygon points="238.564,100.000 238.564,80.000 255.885,70.000 273.205,80.000 273.205,100.000 255.885,110.000"></polygon>
		<circle class="emptyTile" cx="255.885" cy="90.000" r="10.000">
		</g>
		<g class="tile">
			<polygon points="273.205,100.000 273.205,80.000 290.526,70.000 307.846,80.000 307.846,100.000 290.526,110.000"></polygon>
		<circle class="emptyTile" cx="290.526" cy="90.000" r="10.000">
		</g>
		<g class="tile">
			<polygon points="307.846,100.000 307.846,80.000 325.167,70.000 342.487,80.000 342.487,100.000 325.167,110.000"></polygon>
		<circle class="emptyTile" cx="325.167" cy="90.000" r="10.000">
		</g>
		<g class="tile">
			<polygon points="117.321,130.000 117.321,110.000 134.641,100.000 151.962,110.000 151.962,130.000 134.641,140.000"></polygon>
		<circle class="emptyTile" cx="134.641" cy="120.000" r="10.000">
		</g>
		<g class="tile">
			<polygon points="151.962,130.000 151.962,110.000 169.282,100.000 186.603,110.000 186.603,130.000 169.282,140.000"></polygon>
		<circle class="emptyTile" cx="169.282" cy="120.000" r="10.000">
		</g>
		<g class="tile">
			<polygon points="186.603,130.000 186.603,110.000 203.923,100.000 221.244,110.000 221.244,130.000 203.923,140.000"></polygon>
		<circle class="emptyTile" cx="203.923" cy="120.000" r="10.000">
		</g>
		<g class="tile">
			<polygon points="221.244,130.000 221.244,110.000 238.564,100.000 255.885,110.000 255.885,130.000 238.564,140.000"></polygon>
		<circle class="emptyTile" cx="238.564" cy="120.000" r="10.000">
		</g>
		<g class="tile">
			<polygon points="255.885,130.000 255.885,110.000 273.205,100.000 290.526,110.000 290.526,130.000 273.205,140.000"></polygon>
		<circle class="emptyTile" cx="273.205" cy="120.000" r="10.000">
		</g>
		<g class="tile">
			<polygon points="290.526,130.000 290.526,110.000 307.846,100.000 325.167,110.000 325.167,130.000 307.846,140.000"></polygon>
		<circle class="emptyTile" cx="307.846" cy="120.000" r="10.000">
		</g>
		<g class="tile">
			<polygon points="325.167,130.000 325.167,110.000 342.487,100.000 359.808,110.000 359.808,130.000 342.487,140.000"></polygon>
		<circle class="emptyTile" cx="342.487" cy="120.000" r="10.000">
		</g>
		<g class="tile">
			<polygon points="100.000,160.000 100.000,140.000 117.321,130.000 134.641,140.000 134.641,160.000 117.321,170.000"></polygon>
		<circle class="emptyTile" cx="117.321" cy="150.000" r="10.000">
		</g>
		<g class="tile">
			<polygon points="134.641,160.000 134.641,140.000 151.962,130.000 169.282,140.000 169.282,160.000 151.962,170.000"></polygon>
		<circle class="emptyTile" cx="151.962" cy="150.000" r="10.000">
		</g>
		<g class="tile">
			<polygon points="169.282,160.000 169.282,140.000 186.603,130.000 203.923,140.000 203.923,160.000 186.603,170.000"></polygon>
		<circle class="emptyTile" cx="186.603" cy="150.000" r="10.000">
		</g>
		<g class="tile">
			<polygon points="203.923,160.000 203.923,140.000 221.244,130.000 238.564,140.000 238.564,160.000 221.244,170.000"></polygon>
		<circle class="emptyTile" cx="221.244" cy="150.000" r="10.000">
		</g>
		<g class="tile">
			<polygon points="238.564,160.000 238.564,140.000 255.885,130.000 273.205,140.000 273.205,160.000 255.885,170.000"></polygon>
		<circle class="emptyTile" cx="255.885" cy="150.000" r="10.000">
		</g>
		<g class="tile">
			<polygon points="273.205,160.000 273.205,140.000 290.526,130.000 307.846,140.000 307.846,160.000 290.526,170.000"></polygon>
		<circle class="emptyTile" cx="290.526" cy="150.000" r="10.000">
		</g>
		<g class="tile">
			<polygon points="307.846,160.000 307.846,140.000 325.167,130.000 342.487,140.000 342.487,160.000 325.167,170.000"></polygon>
		<circle class="emptyTile" cx="325.167" cy="150.000" r="10.000">
		</g>
		<g class="tile">
			<polygon points="342.487,160.000 342.487,140.000 359.808,130.000 377.128,140.000 377.128,160.000 359.808,170.000"></polygon>
		<circle class="emptyTile" cx="359.808" cy="150.000" r="10.000">
		</g>
		<g class="tile">
			<polygon points="82.679,190.000 82.679,170.000 100.000,160.000 117.321,170.000 117.321,190.000 100.000,200.000"></polygon>
		<circle class="emptyTile" cx="100.000" cy="180.000" r="10.000">
		</g>
		<g class="tile">
			<polygon points="117.321,190.000 117.321,170.000 134.641,160.000 151.962,170.000 151.962,190.000 134.641,200.000"></polygon>
		<circle class="emptyTile" cx="134.641" cy="180.000" r="10.000">
		</g>
		<g class="tile">
			<polygon points="151.962,190.000 151.962,170.000 169.282,160.000 186.603,170.000 186.603,190.000 169.282,200.000"></polygon>
		<circle class="emptyTile" cx="169.282" cy="180.000" r="10.000">
		</g>
		<g class="tile">
			<polygon points="186.603,190.000 186.603,170.000 203.923,160.000 221.244,170.000 221.244,190.000 203.923,200.000"></polygon>
		<circle class="emptyTile" cx="203.923" cy="180.000" r="10.000">
		</g>
		<g class="tile">
			<polygon points="221.244,190.000 221.244,170.000 238.564,160.000 255.885,170.000 255.885,190.000 238.564,200.000"></polygon>
		<circle class="emptyTile" cx="238.564" cy="180.000" r="10.000">
		</g>
		<g class="tile">
			<polygon points="255.885,190.000 255.885,170.000 273.205,160.000 290.526,170.000 290.526,190.000 273.205,200.000"></polygon>
		<circle class="emptyTile" cx="273.205" cy="180.000" r="10.000">
		</g>
		<g class="tile">
			<polygon points="290.526,190.000 290.526,170.000 307.846,160.000 325.167,170.000 325.167,190.000 307.846,200.000"></polygon>
		<circle class="emptyTile" cx="307.846" cy="180.000" r="10.000">
		</g>
		<g class="tile">
			<polygon points="325.167,190.000 325.167,170.000 342.487,160.000 359.808,170.000 359.808,190.000 342.487,200.000"></polygon>
		<circle class="emptyTile" cx="342.487" cy="180.000" r="10.000">
		</g>
		<g class="tile">
			<polygon points="359.808,190.000 359.808,170.000 377.128,160.000 394.449,170.000 394.449,190.000 377.128,200.000"></polygon>
		<circle class="emptyTile" cx="377.128" cy="180.000" r="10.000">
		</g>
		<g class="tile">
			<polygon points="100.000,220.000 100.000,200.000 117.321,190.000 134.641,200.000 134.641,220.000 117.321,230.000"></polygon>
		<circle class="emptyTile" cx="117.321" cy="210.000" r="10.000">
		</g>
		<g class="tile">
			<polygon points="134.641,220.000 134.641,200.000 151.962,190.000 169.282,200.000 169.282,220.000 151.962,230.000"></polygon>
		<circle class="emptyTile" cx="151.962" cy="210.000" r="10.000">
		</g>
		<g class="tile">
			<polygon points="169.282,220.000 169.282,200.000 186.603,190.000 203.923,200.000 203.923,220.000 186.603,230.000"></polygon>
		<circle class="emptyTile" cx="186.603" cy="210.000" r="10.000">
		</g>
		<g class="tile">
			<polygon points="203.923,220.000 203.923,200.000 221.244,190.000 238.564,200.000 238.564,220.000 221.244,230.000"></polygon>
		<circle class="emptyTile" cx="221.244" cy="210.000" r="10.000">
		</g>
		<g class="tile">
			<polygon points="238.564,220.000 238.564,200.000 255.885,190.000 273.205,200.000 273.205,220.000 255.885,230.000"></polygon>
		<circle class="emptyTile" cx="255.885" cy="210.000" r="10.000">
		</g>
		<g class="tile">
			<polygon points="273.205,220.000 273.205,200.000 290.526,190.000 307.846,200.000 307.846,220.000 290.526,230.000"></polygon>
		<circle class="emptyTile" cx="290.526" cy="210.000" r="10.000">
		</g>
		<g class="tile">
			<polygon points="307.846,220.000 307.846,200.000 325.167,190.000 342.487,200.000 342.487,220.000 325.167,230.000"></polygon>
		<circle class="emptyTile" cx="325.167" cy="210.000" r="10.000">
		</g>
		<g class="tile">
			<polygon points="342.487,220.000 342.487,200.000 359.808,190.000 377.128,200.000 377.128,220.000 359.808,230.000"></polygon>
		<circle class="emptyTile" cx="359.808" cy="210.000" r="10.000">
		</g>
		<g class="tile">
			<polygon points="117.321,250.000 117.321,230.000 134.641,220.000 151.962,230.000 151.962,250.000 134.641,260.000"></polygon>
		<circle class="emptyTile" cx="134.641" cy="240.000" r="10.000">
		</g>
		<g class="tile">
			<polygon points="151.962,250.000 151.962,230.000 169.282,220.000 186.603,230.000 186.603,250.000 169.282,260.000"></polygon>
		<circle class="emptyTile" cx="169.282" cy="240.000" r="10.000">
		</g>
		<g class="tile">
			<polygon points="186.603,250.000 186.603,230.000 203.923,220.000 221.244,230.000 221.244,250.000 203.923,260.000"></polygon>
		<circle class="emptyTile" cx="203.923" cy="240.000" r="10.000">
		</g>
		<g class="tile">
			<polygon points="221.244,250.000 221.244,230.000 238.564,220.000 255.885,230.000 255.885,250.000 238.564,260.000"></polygon>
		<circle class="emptyTile" cx="238.564" cy="240.000" r="10.000">
		</g>
		<g class="tile">
			<polygon points="255.885,250.000 255.885,230.000 273.205,220.000 290.526,230.000 290.526,250.000 273.205,260.000"></polygon>
		<circle class="emptyTile" cx="273.205" cy="240.000" r="10.000">
		</g>
		<g class="tile">
			<polygon points="290.526,250.000 290.526,230.000 307.846,220.000 325.167,230.000 325.167,250.000 307.846,260.000"></polygon>
		<circle class="emptyTile" cx="307.846" cy="240.000" r="10.000">
		</g>
		<g class="tile">
			<polygon points="325.167,250.000 325.167,230.000 342.487,220.000 359.808,230.000 359.808,250.000 342.487,260.000"></polygon>
		<circle class="emptyTile" cx="342.487" cy="240.000" r="10.000">
		</g>
		<g class="tile">
			<polygon points="134.641,280.000 134.641,260.000 151.962,250.000 169.282,260.000 169.282,280.000 151.962,290.000"></polygon>
		<circle class="emptyTile" cx="151.962" cy="270.000" r="10.000">
		</g>
		<g class="tile">
			<polygon points="169.282,280.000 169.282,260.000 186.603,250.000 203.923,260.000 203.923,280.000 186.603,290.000"></polygon>
		<circle class="emptyTile" cx="186.603" cy="270.000" r="10.000">
		</g>
		<g class="tile">
			<polygon points="203.923,280.000 203.923,260.000 221.244,250.000 238.564,260.000 238.564,280.000 221.244,290.000"></polygon>
		<circle class="emptyTile" cx="221.244" cy="270.000" r="10.000">
		</g>
		<g class="tile">
			<polygon points="238.564,280.000 238.564,260.000 255.885,250.000 273.205,260.000 273.205,280.000 255.885,290.000"></polygon>
		<circle class="emptyTile" cx="255.885" cy="270.000" r="10.000">
		</g>
		<g class="tile">
			<polygon points="273.205,280.000 273.205,260.000 290.526,250.000 307.846,260.000 307.846,280.000 290.526,290.000"></polygon>
		<circle class="emptyTile" cx="290.526" cy="270.000" r="10.000">
		</g>
		<g class="tile">
			<polygon points="307.846,280.000 307.846,260.000 325.167,250.000 342.487,260.000 342.487,280.000 325.167,290.000"></polygon>
		<circle class="emptyTile" cx="325.167" cy="270.000" r="10.000">
		</g>
		<g class="tile">
			<polygon points="151.962,310.000 151.962,290.000 169.282,280.000 186.603,290.000 186.603,310.000 169.282,320.000"></polygon>
		<circle class="emptyTile" cx="169.282" cy="300.000" r="10.000">
		</g>
		<g class="tile">
			<polygon points="186.603,310.000 186.603,290.000 203.923,280.000 221.244,290.000 221.244,310.000 203.923,320.000"></polygon>
		<circle class="emptyTile" cx="203.923" cy="300.000" r="10.000">
		</g>
		<g class="tile">
			<polygon points="221.244,310.000 221.244,290.000 238.564,280.000 255.885,290.000 255.885,310.000 238.564,320.000"></polygon>
		<circle class="emptyTile" cx="238.564" cy="300.000" r="10.000">
		</g>
		<g class="tile">
			<polygon points="255.885,310.000 255.885,290.000 273.205,280.000 290.526,290.000 290.526,310.000 273.205,320.000"></polygon>
		<circle class="emptyTile" cx="273.205" cy="300.000" r="10.000">
		</g>
		<g class="tile">
			<polygon points="290.526,310.000 290.526,290.000 307.846,280.000 325.167,290.000 325.167,310.000 307.846,320.000"></polygon>
		<circle class="emptyTile" cx="307.846" cy="300.000" r="10.000">
		</g>
	</g>
</svg>
